# Blender v2.90.1 OBJ File: 'xyplane.blend'
# www.blender.org
o xyplane_Plane.002
v 0.850000 0.000000 -1.000000
v 1.000000 0.000000 -0.850000
v 0.873465 0.000000 -0.998153
v 0.896353 0.000000 -0.992658
v 0.918099 0.000000 -0.983651
v 0.938168 0.000000 -0.971353
v 0.956066 0.000000 -0.956066
v 0.971353 0.000000 -0.938168
v 0.983651 0.000000 -0.918099
v 0.992658 0.000000 -0.896353
v 0.998153 0.000000 -0.873465
v -1.000000 0.000000 -0.850000
v -0.850000 0.000000 -1.000000
v -0.998153 0.000000 -0.873465
v -0.992658 0.000000 -0.896353
v -0.983651 0.000000 -0.918099
v -0.971353 0.000000 -0.938168
v -0.956066 0.000000 -0.956066
v -0.938168 0.000000 -0.971353
v -0.918099 0.000000 -0.983651
v -0.896353 0.000000 -0.992658
v -0.873465 0.000000 -0.998153
v 0.850000 0.000000 1.000000
v 1.000000 0.000000 0.850000
v 0.873465 0.000000 0.998153
v 0.896353 0.000000 0.992658
v 0.918099 0.000000 0.983651
v 0.938168 0.000000 0.971353
v 0.956066 0.000000 0.956066
v 0.971353 0.000000 0.938168
v 0.983651 0.000000 0.918099
v 0.992658 0.000000 0.896353
v 0.998153 0.000000 0.873465
v -0.850000 0.000000 1.000000
v -1.000000 0.000000 0.850000
v -0.873465 0.000000 0.998153
v -0.896353 0.000000 0.992658
v -0.918099 0.000000 0.983651
v -0.938168 0.000000 0.971353
v -0.956066 0.000000 0.956066
v -0.971353 0.000000 0.938168
v -0.983651 0.000000 0.918099
v -0.992658 0.000000 0.896353
v -0.998153 0.000000 0.873465
v 0.850000 -0.025480 -1.000000
v 1.000000 -0.025480 -0.850000
v 0.873465 -0.025480 -0.998153
v 0.896353 -0.025480 -0.992658
v 0.918099 -0.025480 -0.983651
v 0.938168 -0.025480 -0.971353
v 0.956066 -0.025480 -0.956066
v 0.971353 -0.025480 -0.938168
v 0.983651 -0.025480 -0.918099
v 0.992658 -0.025480 -0.896353
v 0.998153 -0.025480 -0.873465
v -1.000000 -0.025480 -0.850000
v -0.850000 -0.025480 -1.000000
v -0.998153 -0.025480 -0.873465
v -0.992658 -0.025480 -0.896353
v -0.983651 -0.025480 -0.918099
v -0.971353 -0.025480 -0.938168
v -0.956066 -0.025480 -0.956066
v -0.938168 -0.025480 -0.971353
v -0.918099 -0.025480 -0.983651
v -0.896353 -0.025480 -0.992658
v -0.873465 -0.025480 -0.998153
v 0.850000 -0.025480 1.000000
v 1.000000 -0.025480 0.850000
v 0.873465 -0.025480 0.998153
v 0.896353 -0.025480 0.992658
v 0.918099 -0.025480 0.983651
v 0.938168 -0.025480 0.971353
v 0.956066 -0.025480 0.956066
v 0.971353 -0.025480 0.938168
v 0.983651 -0.025480 0.918099
v 0.992658 -0.025480 0.896353
v 0.998153 -0.025480 0.873465
v -0.850000 -0.025480 1.000000
v -1.000000 -0.025480 0.850000
v -0.873465 -0.025480 0.998153
v -0.896353 -0.025480 0.992658
v -0.918099 -0.025480 0.983651
v -0.938168 -0.025480 0.971353
v -0.956066 -0.025480 0.956066
v -0.971353 -0.025480 0.938168
v -0.983651 -0.025480 0.918099
v -0.992658 -0.025480 0.896353
v -0.998153 -0.025480 0.873465
vn 0.0000 1.0000 0.0000
vn 0.0000 -1.0000 0.0000
vn -0.6494 0.0000 -0.7604
vn 0.9969 0.0000 0.0785
vn 0.9239 0.0000 -0.3827
vn -0.3827 0.0000 0.9239
vn -0.7604 0.0000 -0.6494
vn 0.8526 0.0000 -0.5225
vn -0.2334 0.0000 0.9724
vn -0.8526 0.0000 -0.5225
vn 0.7604 0.0000 -0.6494
vn -0.0785 0.0000 0.9969
vn -0.9239 0.0000 -0.3827
vn 0.6494 0.0000 -0.7604
vn 0.0000 0.0000 1.0000
vn -0.9724 0.0000 -0.2334
vn 0.5225 0.0000 -0.8526
vn 0.0785 0.0000 0.9969
vn -0.9969 0.0000 -0.0785
vn 0.3827 0.0000 -0.9239
vn 0.2334 0.0000 0.9724
vn -1.0000 0.0000 0.0000
vn 0.2334 0.0000 -0.9724
vn 0.3827 0.0000 0.9239
vn -0.9969 0.0000 0.0785
vn 0.0785 0.0000 -0.9969
vn 0.5225 0.0000 0.8526
vn -0.9724 0.0000 0.2334
vn 0.0000 0.0000 -1.0000
vn 0.6494 0.0000 0.7604
vn -0.9239 0.0000 0.3827
vn -0.0785 0.0000 -0.9969
vn 0.7604 0.0000 0.6494
vn -0.8526 0.0000 0.5225
vn -0.2334 0.0000 -0.9724
vn 0.8526 0.0000 0.5225
vn 1.0000 0.0000 0.0000
vn -0.7604 0.0000 0.6494
vn -0.3827 0.0000 -0.9239
vn 0.9239 0.0000 0.3827
vn 0.9969 0.0000 -0.0785
vn -0.6494 0.0000 0.7604
vn -0.5225 0.0000 -0.8526
vn 0.9724 0.0000 0.2334
vn 0.9724 0.0000 -0.2334
vn -0.5225 0.0000 0.8526
s off
f 23//1 30//1 24//1
f 47//2 51//2 55//2
f 63//3 18//3 19//3
f 77//4 24//4 33//4
f 54//5 9//5 10//5
f 82//6 37//6 38//6
f 62//7 17//7 18//7
f 53//8 8//8 9//8
f 81//9 36//9 37//9
f 61//10 16//10 17//10
f 52//11 7//11 8//11
f 80//12 34//12 36//12
f 60//13 15//13 16//13
f 51//14 6//14 7//14
f 78//15 23//15 34//15
f 59//16 14//16 15//16
f 50//17 5//17 6//17
f 67//18 25//18 23//18
f 58//19 12//19 14//19
f 49//20 4//20 5//20
f 69//21 26//21 25//21
f 56//22 35//22 12//22
f 48//23 3//23 4//23
f 70//24 27//24 26//24
f 79//25 44//25 35//25
f 47//26 1//26 3//26
f 71//27 28//27 27//27
f 88//28 43//28 44//28
f 45//29 13//29 1//29
f 72//30 29//30 28//30
f 87//31 42//31 43//31
f 57//32 22//32 13//32
f 73//33 30//33 29//33
f 86//34 41//34 42//34
f 66//35 21//35 22//35
f 74//36 31//36 30//36
f 68//37 2//37 24//37
f 85//38 40//38 41//38
f 65//39 20//39 21//39
f 75//40 32//40 31//40
f 46//41 11//41 2//41
f 84//42 39//42 40//42
f 64//43 19//43 20//43
f 76//44 33//44 32//44
f 55//45 10//45 11//45
f 83//46 38//46 39//46
f 24//1 2//1 1//1
f 2//1 11//1 3//1
f 11//1 10//1 9//1
f 9//1 8//1 7//1
f 7//1 6//1 5//1
f 5//1 4//1 3//1
f 3//1 1//1 2//1
f 1//1 13//1 24//1
f 13//1 22//1 21//1
f 21//1 20//1 13//1
f 20//1 19//1 13//1
f 19//1 18//1 15//1
f 18//1 17//1 15//1
f 17//1 16//1 15//1
f 15//1 14//1 12//1
f 12//1 35//1 13//1
f 35//1 44//1 34//1
f 13//1 35//1 24//1
f 44//1 43//1 42//1
f 42//1 41//1 40//1
f 40//1 39//1 38//1
f 38//1 37//1 36//1
f 36//1 34//1 44//1
f 34//1 23//1 35//1
f 23//1 25//1 26//1
f 26//1 27//1 28//1
f 28//1 29//1 26//1
f 29//1 30//1 26//1
f 30//1 31//1 24//1
f 31//1 32//1 24//1
f 32//1 33//1 24//1
f 11//1 9//1 5//1
f 9//1 7//1 5//1
f 5//1 3//1 11//1
f 15//1 12//1 13//1
f 44//1 42//1 40//1
f 40//1 38//1 36//1
f 23//1 26//1 30//1
f 13//1 19//1 15//1
f 24//1 35//1 23//1
f 44//1 40//1 36//1
f 55//2 46//2 45//2
f 46//2 68//2 67//2
f 68//2 77//2 76//2
f 76//2 75//2 74//2
f 74//2 73//2 76//2
f 73//2 72//2 76//2
f 72//2 71//2 67//2
f 71//2 70//2 67//2
f 70//2 69//2 67//2
f 67//2 78//2 56//2
f 78//2 80//2 79//2
f 56//2 78//2 79//2
f 80//2 81//2 82//2
f 82//2 83//2 84//2
f 84//2 85//2 86//2
f 86//2 87//2 88//2
f 88//2 79//2 80//2
f 56//2 58//2 59//2
f 59//2 60//2 56//2
f 60//2 61//2 56//2
f 61//2 62//2 65//2
f 62//2 63//2 65//2
f 63//2 64//2 65//2
f 65//2 66//2 57//2
f 57//2 45//2 56//2
f 45//2 47//2 55//2
f 56//2 45//2 67//2
f 47//2 48//2 49//2
f 49//2 50//2 51//2
f 51//2 52//2 53//2
f 53//2 54//2 55//2
f 46//2 67//2 45//2
f 68//2 76//2 67//2
f 80//2 82//2 88//2
f 82//2 84//2 86//2
f 86//2 88//2 82//2
f 65//2 57//2 56//2
f 47//2 49//2 51//2
f 51//2 53//2 55//2
f 76//2 72//2 67//2
f 56//2 61//2 65//2
f 63//3 62//3 18//3
f 77//4 68//4 24//4
f 54//5 53//5 9//5
f 82//6 81//6 37//6
f 62//7 61//7 17//7
f 53//8 52//8 8//8
f 81//9 80//9 36//9
f 61//10 60//10 16//10
f 52//11 51//11 7//11
f 80//12 78//12 34//12
f 60//13 59//13 15//13
f 51//14 50//14 6//14
f 78//15 67//15 23//15
f 59//16 58//16 14//16
f 50//17 49//17 5//17
f 67//18 69//18 25//18
f 58//19 56//19 12//19
f 49//20 48//20 4//20
f 69//21 70//21 26//21
f 56//22 79//22 35//22
f 48//23 47//23 3//23
f 70//24 71//24 27//24
f 79//25 88//25 44//25
f 47//26 45//26 1//26
f 71//27 72//27 28//27
f 88//28 87//28 43//28
f 45//29 57//29 13//29
f 72//30 73//30 29//30
f 87//31 86//31 42//31
f 57//32 66//32 22//32
f 73//33 74//33 30//33
f 86//34 85//34 41//34
f 66//35 65//35 21//35
f 74//36 75//36 31//36
f 68//37 46//37 2//37
f 85//38 84//38 40//38
f 65//39 64//39 20//39
f 75//40 76//40 32//40
f 46//41 55//41 11//41
f 84//42 83//42 39//42
f 64//43 63//43 19//43
f 76//44 77//44 33//44
f 55//45 54//45 10//45
f 83//46 82//46 38//46
